<svg width="82" height="80" viewBox="0 0 82 80" fill="none" xmlns="http://www.w3.org/2000/svg">
    <g id="folder">
        <path id="Vector 2" d="M16.5594 10L8 18.5714V70H80V22.1008L76.4755 18.5714H50.7972L43.2448 10H16.5594Z" fill="url(#paint0_linear)" stroke="#808000"/>
        <g id="file">
            <rect id="Rectangle 1" x="38.9582" y="0.707107" width="59" height="45.61" transform="rotate(45 38.9582 0.707107)" fill="white" stroke="#666699"/>
            <path id="Vector 3" d="M7.5 33.4166L39 1.9166L80 42.9166" stroke="#CCFFFF"/>
            <g id="Group 8">
                <g id="Group 2">
                    <path id="Vector 6" d="M22.5 25L13 34.5" stroke="#CCFFFF" stroke-width="2"/>
                    <path id="Vector 5" d="M23.5 25L14 34.5" stroke="#3333CC" stroke-width="2"/>
                </g>
                <g id="Group 3">
                    <path id="Vector 6_2" d="M26.5 30L17 39.5" stroke="#CCFFFF" stroke-width="2"/>
                    <path id="Vector 5_2" d="M27.5 30L18 39.5" stroke="#3333CC" stroke-width="2"/>
                </g>
                <g id="Group 4">
                    <path id="Vector 6_3" d="M31.5 34L22 43.5" stroke="#CCFFFF" stroke-width="2"/>
                    <path id="Vector 5_3" d="M32.5 34L23 43.5" stroke="#3333CC" stroke-width="2"/>
                </g>
                <g id="Group 5">
                    <path id="Vector 6_4" d="M51.881 23L27 49" stroke="#CCFFFF" stroke-width="2"/>
                    <path id="Vector 5_4" d="M54.5 23L29.619 49" stroke="#3333CC" stroke-width="2"/>
                </g>
                <g id="Group 6">
                    <path id="Vector 6_5" d="M58.881 29L34 55" stroke="#CCFFFF" stroke-width="2"/>
                    <path id="Vector 5_5" d="M61.5 29L36.619 55" stroke="#3333CC" stroke-width="2"/>
                </g>
                <g id="Group 7">
                    <path id="Vector 6_6" d="M65.881 35L41 61" stroke="#CCFFFF" stroke-width="2"/>
                    <path id="Vector 5_6" d="M68.5 35L43.619 61" stroke="#3333CC" stroke-width="2"/>
                </g>
            </g>
            <rect id="Rectangle 2" x="39.176" y="7.9166" width="17" height="20.0478" transform="rotate(45 39.176 7.9166)" fill="#66FFFF"/>
            <path id="Vector 4" d="M25 21.9166L37 33.9166L51 19.9166" stroke="#3333CC"/>
        </g>
        <path id="Vector 1" d="M80 79.5H10L1 43V38L3 36.5H70.5L80 62V79.5Z" fill="url(#paint1_linear)" stroke="#999900"/>
    </g>
    <defs>
        <linearGradient id="paint0_linear" x1="78.993" y1="68.4874" x2="17.4841" y2="9.58181" gradientUnits="userSpaceOnUse">
            <stop stop-color="#999900"/>
            <stop offset="1" stop-color="#CCCC66"/>
        </linearGradient>
        <linearGradient id="paint1_linear" x1="4" y1="38" x2="75" y2="78" gradientUnits="userSpaceOnUse">
            <stop stop-color="#FFFF99"/>
            <stop offset="1" stop-color="#FFCC99"/>
        </linearGradient>
    </defs>
</svg>
