<svg id="mail_1_" data-name="mail (1)" xmlns="http://www.w3.org/2000/svg" width="71.241" height="71.244" viewBox="0 0 71.241 71.244">
  <g id="Group_16" data-name="Group 16" transform="translate(0 0)">
    <g id="Group_15" data-name="Group 15">
      <path id="Path_7" data-name="Path 7" d="M67.945,29.142l1.476-1.476a6.262,6.262,0,0,0-8.855-8.855l-2.952,2.952h0l-3.056,3.056V18.785s0,0,0-.006a2.107,2.107,0,0,0-.611-1.47L37.248.612A2.108,2.108,0,0,0,35.772,0H6.273A6.269,6.269,0,0,0,.011,6.262V64.982a6.269,6.269,0,0,0,6.262,6.262H48.3a6.269,6.269,0,0,0,6.262-6.262V42.529L64.993,32.093l1.476,1.476a2.089,2.089,0,0,1,0,2.952l-8.855,8.855a2.087,2.087,0,0,0,2.952,2.952l8.855-8.855a6.269,6.269,0,0,0,0-8.855ZM37.859,7.126,47.431,16.7H39.947a2.09,2.09,0,0,1-2.087-2.087V7.126ZM50.383,64.982h0A2.09,2.09,0,0,1,48.3,67.07H6.273a2.09,2.09,0,0,1-2.087-2.087V6.262A2.09,2.09,0,0,1,6.273,4.174H33.685V14.611a6.269,6.269,0,0,0,6.262,6.262H50.383v8.121L31.048,48.328c-.473.473-.379.514-5.459,11.545a2.087,2.087,0,0,0,2.769,2.769c11.53-5.31,11.028-5.04,11.342-5.283l.035-.026a2.123,2.123,0,0,0,.168-.15L50.383,46.7V64.982Zm-15.55-9.918-3.089,1.422L33.166,53.4Zm3.594-2.309L35.476,49.8,59.09,26.19l2.952,2.952ZM66.469,24.714,64.993,26.19l-2.952-2.952,1.476-1.476a2.087,2.087,0,0,1,2.952,2.952Z" transform="translate(-0.011 0)"/>
    </g>
  </g>
  <g id="Group_18" data-name="Group 18" transform="translate(8.349 58.721)">
    <g id="Group_17" data-name="Group 17">
      <path id="Path_8" data-name="Path 8" d="M70.15,422H62.1a2.087,2.087,0,0,0,0,4.174H70.15a2.087,2.087,0,0,0,0-4.174Z" transform="translate(-60.011 -422)"/>
    </g>
  </g>
  <g id="Group_20" data-name="Group 20" transform="translate(8.349 46.197)">
    <g id="Group_19" data-name="Group 19">
      <path id="Path_9" data-name="Path 9" d="M74.6,332H62.1a2.087,2.087,0,0,0,0,4.174H74.6a2.087,2.087,0,0,0,0-4.174Z" transform="translate(-60.011 -332)"/>
    </g>
  </g>
  <g id="Group_22" data-name="Group 22" transform="translate(8.349 33.674)">
    <g id="Group_21" data-name="Group 21">
      <path id="Path_10" data-name="Path 10" d="M87.127,242H62.1a2.087,2.087,0,0,0,0,4.174H87.127a2.087,2.087,0,0,0,0-4.174Z" transform="translate(-60.011 -242)"/>
    </g>
  </g>
  <g id="Group_24" data-name="Group 24" transform="translate(8.349 20.872)">
    <g id="Group_23" data-name="Group 23">
      <path id="Path_11" data-name="Path 11" d="M82.952,150H62.1a2.087,2.087,0,0,0,0,4.174H82.952a2.087,2.087,0,0,0,0-4.174Z" transform="translate(-60.011 -150)"/>
    </g>
  </g>
  <g id="Group_26" data-name="Group 26" transform="translate(8.349 8.349)">
    <g id="Group_25" data-name="Group 25">
      <path id="Path_12" data-name="Path 12" d="M70.15,60H62.1a2.087,2.087,0,0,0,0,4.174H70.15a2.087,2.087,0,0,0,0-4.174Z" transform="translate(-60.011 -60)"/>
    </g>
  </g>
</svg>
