<svg id="mail_2_" data-name="mail (2)" xmlns="http://www.w3.org/2000/svg" width="71.244" height="71.244" viewBox="0 0 71.244 71.244">
  <g id="Group_38" data-name="Group 38" transform="translate(0 0)">
    <g id="Group_37" data-name="Group 37">
      <path id="Path_18" data-name="Path 18" d="M69.41,28.749,58.721,18.06V14.75a6.269,6.269,0,0,0-6.262-6.262H49.137L43.915,3.365a11.561,11.561,0,0,0-16.307,0L22.385,8.488H19.063A6.269,6.269,0,0,0,12.8,14.75v3.3L1.852,28.732l-.018.018A6.22,6.22,0,0,0,0,33.177V64.983a6.272,6.272,0,0,0,6.262,6.262H64.982a6.272,6.272,0,0,0,6.262-6.262V33.177A6.221,6.221,0,0,0,69.41,28.749ZM58.721,23.963l7.484,7.484-7.484,7.484ZM30.537,6.339l.014-.014a7.376,7.376,0,0,1,10.42,0l.014.014,2.191,2.149H28.346ZM16.976,14.75a2.09,2.09,0,0,1,2.087-2.087h33.4a2.09,2.09,0,0,1,2.087,2.087V43.107l-4.2,4.2-7.207-7.241a10.436,10.436,0,0,0-14.755,0l-7.26,7.219-4.15-4.088ZM12.8,23.878v15.2l-7.75-7.636ZM4.174,64.132V36.438L18.165,50.222ZM7.14,67.07,31.334,43.016a6.262,6.262,0,0,1,8.852,0L64.129,67.07Zm59.93-2.963L53.292,50.264l4.817-4.817h0l8.96-8.96Z" transform="translate(0 0)"/>
    </g>
  </g>
  <g id="Group_40" data-name="Group 40" transform="translate(21.151 21.011)">
    <g id="Group_39" data-name="Group 39">
      <path id="Path_19" data-name="Path 19" d="M162.436,151h-8.349a2.087,2.087,0,0,0,0,4.174h8.349a2.087,2.087,0,0,0,0-4.174Z" transform="translate(-152 -151)"/>
    </g>
  </g>
  <g id="Group_42" data-name="Group 42" transform="translate(21.151 29.36)">
    <g id="Group_41" data-name="Group 41">
      <path id="Path_20" data-name="Path 20" d="M179.134,211H154.087a2.087,2.087,0,0,0,0,4.174h25.047a2.087,2.087,0,0,0,0-4.174Z" transform="translate(-152 -211)"/>
    </g>
  </g>
</svg>
