<svg id="outbox" xmlns="http://www.w3.org/2000/svg" width="71.244" height="71.244" viewBox="0 0 71.244 71.244">
  <g id="Group_28" data-name="Group 28">
    <g id="Group_27" data-name="Group 27">
      <path id="Path_13" data-name="Path 13" d="M71.243,48.132a2.107,2.107,0,0,0-.22-.92l-12.3-24.606V14.611a2.108,2.108,0,0,0-.612-1.477L45.586.612A2.105,2.105,0,0,0,44.109,0H18.785a6.269,6.269,0,0,0-6.262,6.262V22.606L.22,47.212a2.107,2.107,0,0,0-.22.92s0,.009,0,.013V64.982a6.269,6.269,0,0,0,6.262,6.262H64.982a6.269,6.269,0,0,0,6.262-6.262V48.145S71.243,48.137,71.243,48.132ZM58.721,31.94,65.78,46.058H58.721ZM46.2,7.126l5.4,5.4h-3.31A2.09,2.09,0,0,1,46.2,10.436ZM16.7,6.262a2.09,2.09,0,0,1,2.087-2.087H42.023v6.262A6.269,6.269,0,0,0,48.285,16.7h6.262v29.36H16.7ZM42.023,50.233V52.32a2.09,2.09,0,0,1-2.087,2.087H31.308a2.09,2.09,0,0,1-2.087-2.087V50.233ZM12.523,31.94V46.058H5.465ZM67.07,64.982a2.09,2.09,0,0,1-2.087,2.087H6.262a2.09,2.09,0,0,1-2.087-2.087V50.233H25.047V52.32a6.269,6.269,0,0,0,6.262,6.262h8.627A6.269,6.269,0,0,0,46.2,52.32V50.233H67.07Z"/>
    </g>
  </g>
  <g id="Group_30" data-name="Group 30" transform="translate(20.872 8.349)">
    <g id="Group_29" data-name="Group 29">
      <path id="Path_14" data-name="Path 14" d="M156.262,60h-4.174a2.087,2.087,0,1,0,0,4.174h4.174a2.087,2.087,0,1,0,0-4.174Z" transform="translate(-150 -60)"/>
    </g>
  </g>
  <g id="Group_32" data-name="Group 32" transform="translate(20.872 16.698)">
    <g id="Group_31" data-name="Group 31">
      <path id="Path_15" data-name="Path 15" d="M169.063,120H152.087a2.087,2.087,0,1,0,0,4.174h16.976a2.087,2.087,0,0,0,0-4.174Z" transform="translate(-150 -120)"/>
    </g>
  </g>
  <g id="Group_34" data-name="Group 34" transform="translate(20.872 25.186)">
    <g id="Group_33" data-name="Group 33">
      <path id="Path_16" data-name="Path 16" d="M177.412,181H152.087a2.087,2.087,0,1,0,0,4.174h25.325a2.087,2.087,0,1,0,0-4.174Z" transform="translate(-150 -181)"/>
    </g>
  </g>
  <g id="Group_36" data-name="Group 36" transform="translate(20.872 33.535)">
    <g id="Group_35" data-name="Group 35">
      <path id="Path_17" data-name="Path 17" d="M177.412,241H152.087a2.087,2.087,0,0,0,0,4.174h25.325a2.087,2.087,0,0,0,0-4.174Z" transform="translate(-150 -241)"/>
    </g>
  </g>
</svg>
