<svg id="P_1_" xmlns="http://www.w3.org/2000/svg" width="54.268" height="71.244" viewBox="0 0 54.268 71.244">
  <g id="Group_43" data-name="Group 43" transform="translate(0)">
    <path id="Path_21" data-name="Path 21" d="M78.378,71.244H61V0H84.276c8.281,0,13.6.352,16.247,1.075,8.446,2.262,14.746,10.029,14.746,21.56,0,11.961-6.992,20.078-16.221,22.13l-.039.008a75.007,75.007,0,0,1-14.108,1H78.378Zm-13.2-4.174H74.2V41.6H84.9a72.456,72.456,0,0,0,13.261-.911c6.256-1.4,12.933-6.873,12.933-18.05,0-8.889-4.466-15.606-11.656-17.529l-.011,0c-1.549-.424-5.435-.929-15.151-.929h-19.1Zm9.029-32.6v-23.2c2.324.016,1.491.036,5.353.025,4.578-.014,10.275-.031,13,.49a10.836,10.836,0,0,1,9.105,11.026,10.817,10.817,0,0,1-6.936,10.413c-3.173,1.264-9.557,1.223-14.687,1.19C75.7,34.393,76.558,34.441,74.2,34.473Zm4.174-4.235c.541,0,1.108.005,1.688.009,4.261.027,10.7.068,13.116-.894a6.687,6.687,0,0,0,4.306-6.535,6.694,6.694,0,0,0-5.7-6.923l-.014,0c-2.328-.446-8.274-.428-12.209-.416l-1.191,0V30.238Z" transform="translate(-61)"/>
  </g>
</svg>
